# xmcd CD database file
#
# Track frame offsets:
#	150
#	18343
#	68086
#	82932
#	108409
#	143572
#	173729
#	197935
#	233838
#	245923
#
# Disc length: 3514 seconds
#
# Revision: 0
# Processed by: cddbd v1.5.1PL2 Copyright (c) Steve Scherf et al.
# Submitted via: CDex 1.51
#
DISCID=800db80a
DTITLE=Adiemus - Songs of Sanctuary (Special Edition)
DYEAR=1995
DGENRE=New Age
TTITLE0=Adiemus
TTITLE1=Tintinnabulum
TTITLE2=Cantus Inaequalis
TTITLE3=Cantus Insolitus
TTITLE4=In Caelum Fero
TTITLE5=Cantus Iteratus
TTITLE6=Amaté Adea
TTITLE7=Kayama
TTITLE8=Hymn
TTITLE9=Adiemus (Version 1999)
EXTD=YEAR: 1995
EXTT0=
EXTT1=
EXTT2=
EXTT3=
EXTT4=
EXTT5=
EXTT6=
EXTT7=
EXTT8=
EXTT9=
PLAYORDER=
